<svg width="28" height="27" viewBox="0 0 28 27" fill="none" xmlns="http://www.w3.org/2000/svg">
<path d="M23.0977 14.0321L23.1026 14.0313L20.5292 16.2519L20.0698 16.6483L20.2092 17.2388L21.8159 24.0439L21.8167 24.0474C21.8592 24.2246 21.8483 24.4105 21.7853 24.5814C21.7222 24.7524 21.6099 24.9009 21.4625 25.0081C21.3152 25.1153 21.1393 25.1764 20.9573 25.1837C20.7756 25.191 20.5958 25.1444 20.4405 25.0497C20.4402 25.0495 20.4399 25.0493 20.4395 25.0491L14.5242 21.4086L14.0002 21.0861L13.4761 21.4084L7.5592 25.0478C7.55855 25.0482 7.55789 25.0486 7.55724 25.049C7.40223 25.1427 7.22303 25.1887 7.04201 25.1811C6.86025 25.1735 6.68478 25.1123 6.53772 25.0052C6.39065 24.8981 6.27857 24.7499 6.21557 24.5793C6.15257 24.4086 6.14148 24.2231 6.1837 24.0461L6.18404 24.0447L7.79654 17.2396L7.93657 16.6487L7.47678 16.2519L2.20394 11.702C2.20388 11.702 2.20381 11.7019 2.20374 11.7019C2.06575 11.5825 1.96595 11.4252 1.9168 11.2495C1.86762 11.0737 1.87132 10.8874 1.92743 10.7137C1.98354 10.54 2.08957 10.3867 2.23229 10.2729C2.37423 10.1598 2.5462 10.0907 2.72694 10.0742L9.63672 9.51672L10.2468 9.4675L10.4805 8.90185L13.1477 2.44717L13.1486 2.44493C13.2177 2.27665 13.3352 2.13269 13.4863 2.03138C13.6374 1.93007 13.8152 1.87598 13.9971 1.87598C14.179 1.87598 14.3568 1.93007 14.5079 2.03138C14.659 2.13269 14.7766 2.27665 14.8456 2.44494L14.8465 2.44702L17.5125 8.90171L17.7462 9.46749L18.3564 9.51672L25.2666 10.0742C25.2671 10.0743 25.2676 10.0743 25.2681 10.0743C25.4497 10.09 25.6227 10.1588 25.7656 10.2721C25.9088 10.3857 26.0153 10.5391 26.0718 10.713L27.0229 10.4042L26.0718 10.713C26.1282 10.8869 26.1321 11.0735 26.083 11.2496C26.0338 11.4257 25.9337 11.5834 25.7953 11.7029L23.0977 14.0321Z" stroke="#EDEDED" stroke-width="2"/>
</svg>
