<svg width="28" height="27" viewBox="0 0 28 27" fill="none" xmlns="http://www.w3.org/2000/svg">
<path d="M26.4559 12.4586L21.1825 17.009L22.7891 23.8141C22.8778 24.1835 22.8549 24.5709 22.7235 24.9274C22.5921 25.2838 22.358 25.5933 22.0508 25.8168C21.7435 26.0402 21.377 26.1676 20.9974 26.1829C20.6178 26.1981 20.2422 26.1005 19.918 25.9024L14 22.2602L8.07857 25.9024C7.75446 26.0994 7.37931 26.196 7.00037 26.1802C6.62142 26.1644 6.25563 26.0369 5.94904 25.8136C5.64245 25.5903 5.40877 25.2813 5.27744 24.9255C5.1461 24.5697 5.12298 24.183 5.21099 23.8141L6.82349 17.009L1.55005 12.4586C1.26329 12.2108 1.0559 11.884 0.953779 11.519C0.851658 11.154 0.859334 10.767 0.975848 10.4063C1.09236 10.0456 1.31255 9.72727 1.60891 9.491C1.90527 9.25472 2.26468 9.111 2.64224 9.07777L9.5563 8.51995L12.2235 2.06527C12.3679 1.71349 12.6136 1.41259 12.9294 1.20082C13.2452 0.989049 13.6169 0.875977 13.9971 0.875977C14.3774 0.875977 14.749 0.989049 15.0648 1.20082C15.3807 1.41259 15.6264 1.71349 15.7708 2.06527L18.4368 8.51995L25.3508 9.07777C25.7291 9.10976 26.0896 9.25269 26.387 9.48863C26.6845 9.72458 26.9057 10.0431 27.0229 10.4042C27.1402 10.7653 27.1482 11.1529 27.0461 11.5186C26.944 11.8843 26.7362 12.2117 26.4489 12.4598L26.4559 12.4586Z" fill="#FFD760"/>
</svg>
