<svg width="81" height="20" viewBox="0 0 81 20" fill="none" xmlns="http://www.w3.org/2000/svg">
<path d="M18.2 7.74H18.92C20.14 7.74 20.5 8.68 20.5 9.48C20.5 10.3 20.12 11.22 18.92 11.22H18.2V19.52H14.2V2.72C14.2 1.42 15.14 0.739999 16.2 0.739999C17.26 0.739999 18.2 1.42 18.2 2.72V7.74ZM11.12 4.92H8.52V7.66C8.52 8.36 8.48 9.02 8.4 9.66C11.14 10.62 12.98 12.84 12.74 18.38H8.92C9.2 15.68 8.7 14.06 7.54 13.24C6.18 16.74 3.7 18.54 2.1 18.54C0.92 18.54 0.26 17.84 0.26 16.94C0.26 16.28 0.54 15.84 1.14 15.44C3.44 13.92 4.68 11.46 4.68 7.12V4.92H2.06C0.86 4.92 0.36 4.04 0.36 3.22C0.36 2.42 0.84 1.52 2.06 1.52H11.12C12.34 1.52 12.78 2.42 12.78 3.22C12.78 4.04 12.32 4.92 11.12 4.92ZM38.8 19.52H34.8V2.72C34.8 1.42 35.74 0.739999 36.8 0.739999C37.86 0.739999 38.8 1.42 38.8 2.72V19.52ZM32.02 18.68H24.54C22.12 18.68 21.18 17.8 21.18 15.38V11.54C21.18 9.12 22.12 8.28 24.54 8.28H28.24V5.36C28.24 5.1 28.16 4.82 27.74 4.82H23.06C21.86 4.82 21.36 3.98 21.36 3.16C21.36 2.36 21.84 1.48 23.06 1.48H28.84C31.52 1.48 32.24 2.24 32.24 4.44V11.54H26.08C25.4 11.54 25.18 11.7 25.18 12.38V14.56C25.18 15.24 25.4 15.4 26.08 15.4H32.02C33.24 15.4 33.72 16.24 33.72 17.04C33.72 17.86 33.22 18.68 32.02 18.68ZM58.2 7.74H58.92C60.14 7.74 60.5 8.68 60.5 9.48C60.5 10.3 60.12 11.22 58.92 11.22H58.2V19.52H54.2V2.72C54.2 1.42 55.14 0.739999 56.2 0.739999C57.26 0.739999 58.2 1.42 58.2 2.72V7.74ZM45.84 15.14H51.62C52.78 15.14 53.12 16.04 53.12 16.8C53.12 17.58 52.76 18.52 51.62 18.52H44.3C41.96 18.52 41.28 17.68 41.28 15.44V3.48C41.28 2.14 42.22 1.54 43.3 1.54C44.4 1.54 45.26 2.16 45.26 3.48V14.58C45.26 15.04 45.38 15.14 45.84 15.14ZM78.6 7.74H79.02C80.24 7.74 80.6 8.68 80.6 9.48C80.6 10.3 80.22 11.22 79.02 11.22H78.6V19.52H74.6V2.72C74.6 1.42 75.54 0.739999 76.6 0.739999C77.66 0.739999 78.6 1.42 78.6 2.72V7.74ZM70.68 15.56H72.62C73.76 15.56 74.16 16.3 74.16 17.12C74.16 17.98 73.74 18.72 72.62 18.72H64C61.48 18.72 61.12 18.22 61.12 15.8V4.34C61.12 1.92 61.48 1.44 64 1.44H72.22C73.34 1.44 73.76 2.2 73.76 3.02C73.76 3.88 73.32 4.6 72.24 4.6H70.68V15.56ZM65.36 15.56H67V4.6H65.36C64.9 4.6 64.82 4.68 64.82 5.14V15.02C64.82 15.48 64.9 15.56 65.36 15.56Z" fill="#3794FA"/>
</svg>
