<svg width="22" height="22" viewBox="0 0 22 22" fill="none" xmlns="http://www.w3.org/2000/svg">
<path d="M15.0204 16.6192C13.212 18.0229 10.9366 18.6847 8.65737 18.4699C6.37816 18.2551 4.26649 17.1798 2.75219 15.4628C1.23789 13.7459 0.434785 11.5164 0.506357 9.22826C0.577929 6.94007 1.5188 4.76515 3.13744 3.14623C4.75637 1.52758 6.93128 0.586718 9.21947 0.515146C11.5077 0.443574 13.7371 1.24668 15.454 2.76098C17.171 4.27528 18.2463 6.38695 18.4611 8.66616C18.676 10.9454 18.0142 13.2208 16.6104 15.0292L21.1704 19.5892C21.3185 19.7267 21.4268 19.9016 21.4838 20.0955C21.5408 20.2894 21.5445 20.495 21.4944 20.6908C21.4444 20.8866 21.3424 21.0653 21.1994 21.208C21.0563 21.3507 20.8774 21.4522 20.6814 21.5017C20.4859 21.5517 20.2805 21.5481 20.0867 21.4914C19.893 21.4346 19.7181 21.3268 19.5804 21.1792L15.0204 16.6192ZM16.2504 9.50923C16.2638 8.61463 16.0991 7.72632 15.766 6.89595C15.4329 6.06559 14.9379 5.30975 14.31 4.67241C13.6821 4.03507 12.9338 3.52895 12.1084 3.18349C11.2831 2.83802 10.3974 2.66012 9.50269 2.66012C8.608 2.66012 7.72223 2.83802 6.89693 3.18349C6.07162 3.52895 5.32325 4.03507 4.69534 4.67241C4.06743 5.30975 3.57252 6.06559 3.2394 6.89595C2.90628 7.72632 2.7416 8.61463 2.75494 9.50923C2.78136 11.2814 3.50391 12.9721 4.76648 14.216C6.02906 15.4599 7.7303 16.1571 9.50269 16.1571C11.2751 16.1571 12.9763 15.4599 14.2389 14.216C15.5015 12.9721 16.224 11.2814 16.2504 9.50923Z" fill="#A8A8A8"/>
</svg>
