<svg version="1.0" xmlns="http://www.w3.org/2000/svg"
 width="182.000000pt" height="182.000000pt" viewBox="0 0 182.000000 182.000000"
 preserveAspectRatio="xMidYMid meet">

<g transform="translate(0.000000,182.000000) scale(0.100000,-0.100000)"
fill="#000000" stroke="none">
<path d="M410 1464 c-6 -15 -10 -95 -9 -181 l1 -153 39 0 39 0 0 75 c0 71 1
76 25 85 33 13 33 47 0 60 -21 8 -24 16 -27 72 -3 60 -4 63 -30 66 -23 3 -30
-2 -38 -24z"/>
<path d="M827 1483 c-4 -3 -7 -84 -7 -180 l0 -173 38 0 37 0 0 167 c0 93 -4
174 -8 181 -9 13 -49 17 -60 5z"/>
<path d="M1209 1463 c-6 -16 -9 -91 -8 -180 l2 -153 39 0 38 0 0 75 c0 71 1
76 25 85 33 13 33 47 0 60 -21 8 -24 16 -27 72 -3 60 -4 63 -30 66 -23 3 -30
-2 -39 -25z"/>
<path d="M1622 1478 c-8 -8 -12 -59 -12 -180 l0 -168 40 0 40 0 0 79 c0 70 2
79 20 84 26 7 26 43 0 57 -15 8 -20 23 -22 73 -3 58 -5 62 -28 65 -14 2 -31
-3 -38 -10z"/>
<path d="M143 1474 c-18 -8 -16 -51 3 -58 9 -3 28 -6 43 -6 26 0 27 -1 24 -52
-5 -75 -20 -114 -54 -143 -37 -30 -35 -59 4 -63 20 -3 36 5 61 30 18 18 35 40
39 48 9 23 37 -16 37 -52 0 -25 3 -28 35 -28 33 0 35 2 35 35 0 50 -25 103
-54 117 -23 10 -26 17 -26 60 0 46 1 48 28 48 38 0 54 13 50 41 -3 23 -6 24
-108 26 -58 1 -111 -1 -117 -3z"/>
<path d="M554 1465 c-10 -24 3 -45 28 -46 51 -4 84 -6 96 -7 9 -1 12 -13 10
-34 -3 -33 -4 -33 -63 -38 -49 -4 -61 -9 -71 -28 -14 -28 -10 -140 5 -155 13
-13 167 -23 207 -13 19 5 25 12 22 29 -3 20 -10 22 -83 27 l-80 5 0 35 0 35
68 3 67 3 0 89 c0 108 -2 110 -120 110 -62 0 -82 -3 -86 -15z"/>
<path d="M961 1466 c-8 -9 -11 -61 -9 -162 l3 -149 110 0 110 0 0 25 c0 24 -3
25 -75 30 l-75 5 -3 125 c-3 122 -7 139 -38 140 -6 0 -17 -6 -23 -14z"/>
<path d="M1351 1461 c-16 -29 -14 -283 2 -304 11 -15 28 -17 127 -15 l115 3 0
25 c0 21 -5 26 -32 28 l-33 3 0 109 0 109 28 3 c21 2 27 8 27 28 l0 25 -112 3
c-103 2 -113 1 -122 -17z m109 -151 c0 -101 -2 -110 -19 -110 -25 0 -27 9 -23
123 3 88 5 97 23 97 18 0 19 -8 19 -110z"/>
<path d="M550 782 c-85 -42 -129 -218 -137 -554 l-6 -228 503 0 502 0 -5 253
c-4 208 -9 267 -26 341 -36 153 -69 195 -160 204 l-51 5 7 -34 c5 -19 8 -102
8 -185 0 -113 -3 -155 -14 -167 -12 -15 -42 -17 -250 -17 -171 0 -240 3 -249
12 -8 8 -12 62 -12 178 0 91 -3 175 -6 188 -8 28 -53 30 -104 4z"/>
</g>
</svg>
